<svg xmlns="http://www.w3.org/2000/svg" viewBox="0 0 40 40" fill="none">
  <rect width="40" height="40" rx="8" fill="#1B2B4B"/>
  <!-- Shield shape -->
  <path d="M10 8h20v18c0 4-4 8-10 10-6-2-10-6-10-10V8z" fill="#C9A94E" opacity="0.9"/>
  <!-- Lion head simplified -->
  <path d="M20 14c-3 0-5 2-5 5 0 2 1 3 2 4l3 2 3-2c1-1 2-2 2-4 0-3-2-5-5-5z" fill="#1B2B4B"/>
  <!-- Crown/mane rays -->
  <path d="M15 13l1-2 1 1.5L18 11l1 2h2l1-2 1 1.5L24 11l1 2" stroke="#1B2B4B" stroke-width="0.8" fill="none"/>
  <!-- Eyes -->
  <circle cx="18" cy="18" r="0.8" fill="#C9A94E"/>
  <circle cx="22" cy="18" r="0.8" fill="#C9A94E"/>
  <!-- Nose -->
  <path d="M19 20h2l-1 1.5z" fill="#C9A94E"/>
</svg>
